<svg xmlns="http://www.w3.org/2000/svg" width="200" height="280" viewBox="0 0 200 280"><path fill="none" stroke="#7ec8e3" stroke-linecap="round" stroke-width="14" d="M52 80 Q20 120 18 160 Q16 190 22 220 Q26 240 30 260"/><path fill="none" stroke="#5ab4d4" stroke-linecap="round" stroke-width="6" d="M52 80 Q18 122 16 162 Q14 192 20 222 Q24 242 28 262" opacity=".5"/><path fill="none" stroke="#7ec8e3" stroke-linecap="round" stroke-width="14" d="M148 80 Q180 120 182 160 Q184 190 178 220 Q174 240 170 260"/><path fill="none" stroke="#5ab4d4" stroke-linecap="round" stroke-width="6" d="M148 80 Q182 122 184 162 Q186 192 180 222 Q176 242 172 262" opacity=".5"/><ellipse cx="30" cy="260" fill="#c084fc" rx="8" ry="5" transform="rotate(-20 30 260)"/><ellipse cx="170" cy="260" fill="#c084fc" rx="8" ry="5" transform="rotate(20 170 260)"/><path fill="#7ec8e3" d="M50 75 Q70 30 100 25 Q130 30 150 75 Q130 60 100 58 Q70 60 50 75Z"/><path fill="#7ec8e3" d="M60 75 Q65 55 72 70"/><path fill="#7ec8e3" d="M80 62 Q82 45 90 62"/><ellipse cx="100" cy="110" fill="#f0e6d8" rx="46" ry="54"/><path fill="none" stroke="#5ab4d4" stroke-linecap="round" stroke-width="2.5" d="M70 82 Q80 76 90 80"/><path fill="none" stroke="#5ab4d4" stroke-linecap="round" stroke-width="2.5" d="M110 80 Q120 76 130 82"/><ellipse cx="80" cy="102" fill="#fff" rx="14" ry="12"/><ellipse cx="80" cy="103" fill="#6b9fff" rx="9" ry="9"/><ellipse cx="80" cy="103" fill="#1a1a2e" rx="5" ry="5"/><circle cx="83" cy="100" r="2.5" fill="#fff"/><path fill="none" stroke="#5ab4d4" stroke-width="1.5" d="M67 107 Q80 112 93 107"/><ellipse cx="120" cy="102" fill="#fff" rx="14" ry="12"/><ellipse cx="120" cy="103" fill="#6b9fff" rx="9" ry="9"/><ellipse cx="120" cy="103" fill="#1a1a2e" rx="5" ry="5"/><circle cx="123" cy="100" r="2.5" fill="#fff"/><path fill="none" stroke="#5ab4d4" stroke-width="1.5" d="M107 107 Q120 112 133 107"/><path fill="none" stroke="#c4a882" stroke-linecap="round" stroke-width="1.5" d="M97 120 Q100 126 103 120"/><path fill="none" stroke="#1a1a1a" stroke-linecap="round" stroke-width="2" d="M78 140 Q90 133 100 134 Q110 133 122 140"/><path fill="#d45a5a" d="M78 140 Q100 156 122 140 Q110 148 100 149 Q90 148 78 140Z"/><path fill="#fff" d="M85 141 Q100 153 115 141 Q100 145 85 141Z"/><ellipse cx="68" cy="118" fill="#f4a0b0" opacity=".4" rx="10" ry="6"/><ellipse cx="132" cy="118" fill="#f4a0b0" opacity=".4" rx="10" ry="6"/></svg>